solid (C:\Temp\digimat\11_files\geometry.stl)
  facet normal 0.00000000e+000 0.00000000e+000 1.00000000e+000
    outer loop
      vertex -5.00000000e+000 -3.00000000e+001 4.00000000e+000
      vertex 5.00000000e+000 -3.00000000e+001 4.00000000e+000
      vertex -5.00000000e+000 3.00000000e+001 4.00000000e+000
    endloop
  endfacet
  facet normal 0.00000000e+000 0.00000000e+000 1.00000000e+000
    outer loop
      vertex -5.00000000e+000 3.00000000e+001 4.00000000e+000
      vertex 5.00000000e+000 -3.00000000e+001 4.00000000e+000
      vertex 5.00000000e+000 3.00000000e+001 4.00000000e+000
    endloop
  endfacet
  facet normal 0.00000000e+000 0.00000000e+000 -1.00000000e+000
    outer loop
      vertex -5.00000000e+000 -3.00000000e+001 0.00000000e+000
      vertex -5.00000000e+000 3.00000000e+001 0.00000000e+000
      vertex 5.00000000e+000 -3.00000000e+001 0.00000000e+000
    endloop
  endfacet
  facet normal 0.00000000e+000 0.00000000e+000 -1.00000000e+000
    outer loop
      vertex 5.00000000e+000 -3.00000000e+001 0.00000000e+000
      vertex -5.00000000e+000 3.00000000e+001 0.00000000e+000
      vertex 5.00000000e+000 3.00000000e+001 0.00000000e+000
    endloop
  endfacet
  facet normal 0.00000000e+000 1.00000000e+000 0.00000000e+000
    outer loop
      vertex -5.00000000e+000 3.00000000e+001 4.00000000e+000
      vertex 5.00000000e+000 3.00000000e+001 4.00000000e+000
      vertex -5.00000000e+000 3.00000000e+001 0.00000000e+000
    endloop
  endfacet
  facet normal 0.00000000e+000 1.00000000e+000 0.00000000e+000
    outer loop
      vertex -5.00000000e+000 3.00000000e+001 0.00000000e+000
      vertex 5.00000000e+000 3.00000000e+001 4.00000000e+000
      vertex 5.00000000e+000 3.00000000e+001 0.00000000e+000
    endloop
  endfacet
  facet normal 1.00000000e+000 0.00000000e+000 0.00000000e+000
    outer loop
      vertex 5.00000000e+000 -3.00000000e+001 4.00000000e+000
      vertex 5.00000000e+000 -3.00000000e+001 0.00000000e+000
      vertex 5.00000000e+000 3.00000000e+001 4.00000000e+000
    endloop
  endfacet
  facet normal 1.00000000e+000 0.00000000e+000 0.00000000e+000
    outer loop
      vertex 5.00000000e+000 3.00000000e+001 4.00000000e+000
      vertex 5.00000000e+000 -3.00000000e+001 0.00000000e+000
      vertex 5.00000000e+000 3.00000000e+001 0.00000000e+000
    endloop
  endfacet
  facet normal 0.00000000e+000 -1.00000000e+000 0.00000000e+000
    outer loop
      vertex 5.00000000e+000 -3.00000000e+001 4.00000000e+000
      vertex -5.00000000e+000 -3.00000000e+001 4.00000000e+000
      vertex 5.00000000e+000 -3.00000000e+001 0.00000000e+000
    endloop
  endfacet
  facet normal 0.00000000e+000 -1.00000000e+000 0.00000000e+000
    outer loop
      vertex 5.00000000e+000 -3.00000000e+001 0.00000000e+000
      vertex -5.00000000e+000 -3.00000000e+001 4.00000000e+000
      vertex -5.00000000e+000 -3.00000000e+001 0.00000000e+000
    endloop
  endfacet
  facet normal -1.00000000e+000 0.00000000e+000 0.00000000e+000
    outer loop
      vertex -5.00000000e+000 3.00000000e+001 4.00000000e+000
      vertex -5.00000000e+000 3.00000000e+001 0.00000000e+000
      vertex -5.00000000e+000 -3.00000000e+001 4.00000000e+000
    endloop
  endfacet
  facet normal -1.00000000e+000 0.00000000e+000 0.00000000e+000
    outer loop
      vertex -5.00000000e+000 -3.00000000e+001 4.00000000e+000
      vertex -5.00000000e+000 3.00000000e+001 0.00000000e+000
      vertex -5.00000000e+000 -3.00000000e+001 0.00000000e+000
    endloop
  endfacet
endsolid (C:\Temp\digimat\11_files\geometry.stl)
